# xmcd
#
# Track frame offsets:
#	150
#	14383
#	27688
#	42608
#	55955
#	70941
#	90549
#	103901
#	117531
#	132007
#	144170
#	158575
#	177141
#	189657
#	205320
#	219821
#
# Disc length: 3135 seconds
#
# Revision: 0
# Processed by: cddbd v1.5.2PL0 Copyright (c) Steve Scherf et al.
# Submitted via: EasyCDDAExtractor 16.0.6.1
#
DISCID=e50c3d10
DTITLE=Ζαγοραίος Σπύρος - Μπουρλότα-L.P., Σ. Ζαγοραίος
DYEAR=1994
DGENRE=Λαϊκή
TTITLE0=Η αγάπη με σκοτώνει [Σ. Ζαγοραίου]
TTITLE1=Φχαριστήθηκα [Σ. Ζαγοραίου]
TTITLE2=Όπου βρεθώ κι όπου σταθώ [Σ. Ζαγοραίου]
TTITLE3=Κουνήσου και λυγίσου [Μανίσαλη-Κ. Βίρβου]
TTITLE4=Το παρελθόν μου [Η. Μπάσιου-Α. Αξιώτη]
TTITLE5=Ρίξε φωτιά για να με κάψεις [Η. Μπάσιου-Α. Αξιώτη]
TTITLE6=Κανείς δεν ήρθε να με δει [Σ. Ζαγοραίου]
TTITLE7=Από τη ζωή μου [Σ. Ζαγοραίου]
TTITLE8=Μωρή ζηλιάρα και τρελλή [Σ. Ζαγοραίου]
TTITLE9=Η γυναίκα θέλει χάδια [Σ. Ζαγοραίου]
TTITLE10=Θα σε βαρεθεί μιά μέρα [Ι. Καπλάνογλου-Κ. Κατσίγρα]
TTITLE11=Αμαρτίες μου παλιές [Θ. Κολοκοτρώνη-Μ. Δαλιάνη]
TTITLE12=Όταν κοιμάται ο δυστυχής [Β. Καραπατάκη]
TTITLE13=Να δεις λαχτάρες και ζημιές [Μ. Δαλιάνη-Θ. Κολοκοτρώνη]
TTITLE14=Μπουρλότο [Β. Ζαϊμη-Χ. Κοτσώνη]
TTITLE15=Πήγα να δω ένα φίλο μου [Γ. Μπίλη]
EXTD=
EXTT0=
EXTT1=
EXTT2=
EXTT3=
EXTT4=
EXTT5=
EXTT6=
EXTT7=
EXTT8=
EXTT9=
EXTT10=
EXTT11=
EXTT12=
EXTT13=
EXTT14=
EXTT15=
PLAYORDER=
